<svg xmlns="http://www.w3.org/2000/svg" width="32" height="32" viewBox="0 0 32 32" fill="none">
<path d="M9.24331 26.2442C10.5258 26.2442 11.5764 27.3172 11.5764 28.6428C11.5764 29.9526 10.5258 31.0256 9.24331 31.0256C7.94542 31.0256 6.89475 29.9526 6.89475 28.6428C6.89475 27.3172 7.94542 26.2442 9.24331 26.2442ZM26.6258 26.2442C27.9082 26.2442 28.9589 27.3172 28.9589 28.6428C28.9589 29.9526 27.9082 31.0256 26.6258 31.0256C25.3279 31.0256 24.2772 29.9526 24.2772 28.6428C24.2772 27.3172 25.3279 26.2442 26.6258 26.2442ZM2.21338 0.112877L5.89846 0.679389C6.4238 0.775648 6.81008 1.21592 6.85643 1.75245L7.15 5.28722C7.19635 5.79377 7.59808 6.1725 8.09252 6.1725H28.9592C29.9017 6.1725 30.5198 6.50388 31.1378 7.22977C31.7558 7.95566 31.864 8.99716 31.7249 9.9424L30.2571 20.2942C29.979 22.2841 28.3103 23.7501 26.348 23.7501H9.49084C7.43584 23.7501 5.73623 22.1421 5.56626 20.0591L4.14477 2.85706L1.81165 2.44678C1.19361 2.33632 0.760979 1.72089 0.869137 1.08968C0.977294 0.444263 1.57989 0.0166178 2.21338 0.112877ZM23.8758 12.0096H19.5958C18.9469 12.0096 18.437 12.5304 18.437 13.1931C18.437 13.8401 18.9469 14.3766 19.5958 14.3766H23.8758C24.5247 14.3766 25.0346 13.8401 25.0346 13.1931C25.0346 12.5304 24.5247 12.0096 23.8758 12.0096Z" fill="white"/>
</svg>