<svg xmlns="http://www.w3.org/2000/svg" width="32" height="35" viewBox="0 0 32 35" fill="none">
<path d="M23.5163 0.193604C28.8236 0.193604 31.7788 3.25187 31.7788 8.49215V26.2404C31.7788 31.5666 28.8236 34.5561 23.5163 34.5561H9.11672C3.89362 34.5561 0.852539 31.5666 0.852539 26.2404V8.49215C0.852539 3.25187 3.89362 0.193604 9.11672 0.193604H23.5163ZM9.58061 23.8006C9.06518 23.7491 8.56692 23.9896 8.29202 24.4363C8.01712 24.8659 8.01712 25.4329 8.29202 25.8796C8.56692 26.3091 9.06518 26.5668 9.58061 26.4981H23.0507C23.7362 26.4294 24.2534 25.8435 24.2534 25.158C24.2534 24.4535 23.7362 23.8694 23.0507 23.8006H9.58061ZM23.0507 15.9643H9.58061C8.8401 15.9643 8.24048 16.5673 8.24048 17.3061C8.24048 18.0449 8.8401 18.6463 9.58061 18.6463H23.0507C23.7895 18.6463 24.3908 18.0449 24.3908 17.3061C24.3908 16.5673 23.7895 15.9643 23.0507 15.9643ZM14.7161 8.18288H9.58061V8.20006C8.8401 8.20006 8.24048 8.80141 8.24048 9.5402C8.24048 10.279 8.8401 10.8803 9.58061 10.8803H14.7161C15.4566 10.8803 16.0579 10.279 16.0579 9.5213C16.0579 8.78423 15.4566 8.18288 14.7161 8.18288Z" fill="white"/>
</svg>