<svg xmlns="http://www.w3.org/2000/svg" width="32" height="33" viewBox="0 0 32 33" fill="none">
<path d="M11.6519 30.8461V25.8691C11.6519 24.5986 12.6894 23.5686 13.9692 23.5686H18.6475C19.2621 23.5686 19.8515 23.811 20.2861 24.2424C20.7207 24.6738 20.9648 25.259 20.9648 25.8691V30.8461C20.9609 31.3743 21.1696 31.8822 21.5444 32.2571C21.9193 32.6319 22.4294 32.8428 22.9615 32.8428H26.1532C27.6438 32.8466 29.0748 32.2614 30.1302 31.2164C31.1856 30.1713 31.7788 28.7523 31.7788 27.2725V13.0937C31.7788 11.8983 31.245 10.7644 30.3214 9.99749L19.4637 1.38893C17.5749 -0.120447 14.8688 -0.0717131 13.0365 1.50467L2.42654 9.99749C1.45925 10.7418 0.881109 11.8791 0.852539 13.0937V27.258C0.852539 30.3424 3.37121 32.8428 6.47814 32.8428H9.597C10.7021 32.8428 11.6002 31.9576 11.6082 30.8606L11.6519 30.8461Z" fill="white"/>
</svg>