<svg xmlns="http://www.w3.org/2000/svg" width="32" height="38" viewBox="0 0 32 38" fill="none">
<path d="M12.6103 32.3044C13.5197 32.112 19.0613 32.112 19.9708 32.3044C20.7482 32.4839 21.5889 32.9035 21.5889 33.8196C21.5437 34.6917 21.0321 35.4649 20.3251 35.956C19.4085 36.6705 18.3327 37.1231 17.2081 37.2862C16.5861 37.3668 15.975 37.3686 15.3748 37.2862C14.2484 37.1231 13.1726 36.6705 12.2577 35.9541C11.549 35.4649 11.0373 34.6917 10.9921 33.8196C10.9921 32.9035 11.8328 32.4839 12.6103 32.3044ZM16.3979 0.963501C20.1821 0.963501 24.0477 2.75908 26.3439 5.73827C27.8337 7.6566 28.5171 9.5731 28.5171 12.5523V13.3273C28.5171 15.6121 29.121 16.9588 30.4499 18.5107C31.457 19.654 31.7788 21.1216 31.7788 22.7138C31.7788 24.3041 31.2563 25.8139 30.2094 27.0397C28.8389 28.5091 26.9062 29.4472 24.9336 29.6103C22.0751 29.8539 19.2148 30.0592 16.3166 30.0592C13.4165 30.0592 10.558 29.9364 7.69952 29.6103C5.72516 29.4472 3.79239 28.5091 2.42371 27.0397C1.37687 25.8139 0.852539 24.3041 0.852539 22.7138C0.852539 21.1216 1.17618 19.654 2.18144 18.5107C3.55192 16.9588 4.11602 15.6121 4.11602 13.3273V12.5523C4.11602 9.49248 4.87901 7.4917 6.45018 5.53306C8.78615 2.67663 12.5306 0.963501 16.2352 0.963501H16.3979Z" fill="white"/>
</svg>