<svg xmlns="http://www.w3.org/2000/svg" width="32" height="34" viewBox="0 0 32 34" fill="none">
<path d="M17.4831 0.619934C18.714 0.619934 19.8285 1.30357 20.444 2.31274C20.7434 2.80105 20.943 3.4033 20.8931 4.0381C20.8599 4.52641 21.0096 5.01472 21.2757 5.47047C22.1241 6.85401 24.0038 7.37488 25.4676 6.59358C27.1144 5.64952 29.1937 6.21921 30.1418 7.83063L31.2563 9.75131C32.2211 11.3627 31.6888 13.4299 30.0254 14.3577C28.6115 15.1878 28.1124 17.0271 28.9608 18.4269C29.227 18.8664 29.5264 19.2408 29.9921 19.4687C30.5743 19.7779 31.0235 20.2662 31.3395 20.7545C31.955 21.7637 31.9051 23.0008 31.3062 24.0913L30.1418 26.0446C29.5264 27.0863 28.3786 27.7374 27.1976 27.7374C26.6154 27.7374 25.9666 27.5746 25.4343 27.2491C25.0018 26.9723 24.5028 26.8747 23.9705 26.8747C22.3237 26.8747 20.943 28.2257 20.8931 29.8371C20.8931 31.7089 19.3628 33.1739 17.4498 33.1739H15.1875C13.258 33.1739 11.7276 31.7089 11.7276 29.8371C11.6943 28.2257 10.3137 26.8747 8.66687 26.8747C8.11794 26.8747 7.61891 26.9723 7.20305 27.2491C6.67075 27.5746 6.00537 27.7374 5.4398 27.7374C4.24213 27.7374 3.09436 27.0863 2.47889 26.0446L1.33111 24.0913C0.715643 23.0333 0.682374 21.7637 1.29785 20.7545C1.564 20.2662 2.06303 19.7779 2.6286 19.4687C3.09436 19.2408 3.39378 18.8664 3.67656 18.4269C4.50828 17.0271 4.00925 15.1878 2.59533 14.3577C0.948524 13.4299 0.416224 11.3627 1.36438 9.75131L2.47889 7.83063C3.44368 6.21921 5.50634 5.64952 7.16978 6.59358C8.61697 7.37488 10.4967 6.85401 11.345 5.47047C11.6112 5.01472 11.7609 4.52641 11.7276 4.0381C11.6943 3.4033 11.8773 2.80105 12.1934 2.31274C12.8088 1.30357 13.9233 0.652488 15.1376 0.619934H17.4831ZM16.3353 12.3068C13.7237 12.3068 11.6112 14.3577 11.6112 16.9132C11.6112 19.4687 13.7237 21.5033 16.3353 21.5033C18.9469 21.5033 21.0096 19.4687 21.0096 16.9132C21.0096 14.3577 18.9469 12.3068 16.3353 12.3068Z" fill="white"/>
</svg>  