<svg xmlns="http://www.w3.org/2000/svg" width="32" height="32" viewBox="0 0 32 32" fill="none">
<path d="M23.5354 0.146606C28.7944 0.146606 31.7633 3.12944 31.7788 8.38845V22.831C31.7788 28.0885 28.7944 31.0728 23.5354 31.0728H9.09438C3.83537 31.0728 0.852539 28.0885 0.852539 22.831V8.38845C0.852539 3.12944 3.83537 0.146606 9.09438 0.146606H23.5354ZM17.0888 6.53288C16.6543 6.27 16.1286 6.27 15.7126 6.53288C15.2935 6.7942 15.0631 7.27511 15.108 7.75446V23.5114C15.1869 24.1763 15.742 24.6711 16.3914 24.6711C17.0579 24.6711 17.613 24.1763 17.6749 23.5114V7.75446C17.7367 7.27511 17.5063 6.7942 17.0888 6.53288ZM9.86754 11.6048C9.45003 11.3419 8.92274 11.3419 8.50678 11.6048C8.08773 11.8677 7.85733 12.3455 7.90372 12.8264V23.5114C7.96403 24.1763 8.5207 24.6711 9.18561 24.6711C9.85208 24.6711 10.4072 24.1763 10.4691 23.5114V12.8264C10.517 12.3455 10.2835 11.8677 9.86754 11.6048ZM24.1848 17.2179C23.7689 16.955 23.2431 16.955 22.8102 17.2179C22.3911 17.4808 22.1607 17.9431 22.2226 18.4395V23.5114C22.2844 24.1763 22.8396 24.6711 23.506 24.6711C24.1555 24.6711 24.7106 24.1763 24.7895 23.5114V18.4395C24.8343 17.9431 24.6039 17.4808 24.1848 17.2179Z" fill="white"/>
</svg>