<svg xmlns="http://www.w3.org/2000/svg" width="32" height="29" viewBox="0 0 32 29" fill="none">
<path d="M23.2981 0.923035C28.6312 0.923035 31.7788 3.99184 31.7788 9.24498H25.2362V9.29858C22.1997 9.29858 19.7382 11.6985 19.7382 14.6589C19.7382 17.6194 22.1997 20.0193 25.2362 20.0193H31.7788V20.5017C31.7788 25.6879 28.6312 28.7567 23.2981 28.7567H9.3332C4.00014 28.7567 0.852539 25.6879 0.852539 20.5017V9.17797C0.852539 3.99184 4.00014 0.923035 9.3332 0.923035H23.2981ZM30.6242 11.5499C31.2619 11.5499 31.7788 12.0539 31.7788 12.6756V16.5887C31.7714 17.2073 31.2588 17.7071 30.6242 17.7143H25.3599C23.8227 17.7345 22.4785 16.7084 22.1298 15.2486C21.9552 14.3424 22.2003 13.4073 22.7995 12.6939C23.3986 11.9805 24.2905 11.5618 25.2362 11.5499H30.6242ZM25.9784 13.359H25.4698C25.1576 13.3555 24.8569 13.4739 24.6348 13.6879C24.4127 13.9019 24.2878 14.1937 24.2878 14.4981C24.2877 15.1368 24.8148 15.6567 25.4698 15.664H25.9784C26.6312 15.664 27.1605 15.148 27.1605 14.5115C27.1605 13.875 26.6312 13.359 25.9784 13.359ZM16.9067 6.94003H8.17862C7.53111 6.93999 7.00408 7.44785 6.99655 8.0791C6.99655 8.7178 7.52357 9.23764 8.17862 9.24498H16.9067C17.5595 9.24498 18.0888 8.729 18.0888 8.0925C18.0888 7.45601 17.5595 6.94003 16.9067 6.94003Z" fill="white"/>
</svg>